<svg width="90" height="90" viewBox="0 0 90 90" fill="none" xmlns="http://www.w3.org/2000/svg">
<g filter="url(#filter0_diii_325_1370)">
<circle cx="45" cy="43" r="40" fill="#BDD8EE"/>
</g>
<g clip-path="url(#clip0_325_1370)">
<path d="M43.7861 46.1531C44.4613 46.1531 45.1195 45.9686 45.6933 45.6187L60.8976 35.751L45.6923 45.6198C45.1195 45.9686 44.4603 46.1531 43.7861 46.1531Z" fill="#1C4168"/>
<path d="M61.9767 54.5073C61.7729 55.0086 61.4636 55.4577 61.0753 55.8289C60.3799 56.4923 59.4316 56.9009 58.3863 56.9009H29.1852C28.1399 56.9009 27.1916 56.4923 26.4961 55.8289H26.4951C26.1068 55.4609 25.7964 55.0097 25.5937 54.5073L36.7799 44.3163L38.1804 45.1846H38.1815L36.7831 44.3163H36.7809L25.5959 54.5051C25.4188 54.0699 25.3207 53.5963 25.3207 53.0993V37.2081V37.2113H25.3228V35.9228C25.3228 35.5889 25.3665 35.2646 25.4487 34.9563H25.4465C25.7313 33.8897 26.4748 33.0065 27.4583 32.5222C25.5703 32.7356 23.182 35.9963 22.734 37.5697C22.6455 37.8779 22.5996 38.2022 22.5996 38.5361V55.6955C22.5996 56.1905 22.7031 56.6651 22.8929 57.0993C23.1095 57.6006 23.4401 58.0508 23.854 58.4198C24.5943 59.0822 25.6055 59.4908 26.7191 59.4908H58.1004C59.2151 59.4908 60.2252 59.0822 60.9655 58.4198C61.3793 58.0508 61.7089 57.6006 61.9265 57.0993C62.1143 56.6651 62.2199 56.1915 62.2199 55.6955V53.591C62.1772 53.91 62.0951 54.2172 61.9777 54.5073H61.9767Z" fill="#1C4168"/>
<path d="M50.7939 44.3163L61.9779 54.5051C62.0953 54.2161 62.1774 53.9089 62.2201 53.5899C62.2414 53.4299 62.2531 53.2667 62.2531 53.1014V37.2123L50.7939 44.3163Z" fill="#F0F7FB"/>
<path d="M25.3193 53.1003C25.3193 53.5963 25.4164 54.071 25.5945 54.5062L36.7796 44.3163L25.3215 37.2123L25.3193 37.2112V53.1014V53.1003Z" fill="#F0F7FB"/>
<path d="M38.1793 45.1857L26.4961 55.8289C27.1916 56.4923 28.1398 56.9009 29.1852 56.9009H58.3862C59.4316 56.9009 60.3798 56.4923 61.0753 55.8289L55.5052 50.7547L49.3921 45.1857L46.5366 46.9563C45.695 47.4694 44.7404 47.7275 43.7868 47.7275C42.8332 47.7275 41.8785 47.4705 41.0369 46.9563L38.1814 45.1857H38.1793Z" fill="#F0F7FB"/>
<path d="M38.1794 45.1856L36.7789 44.3174L25.5928 54.5083C25.7965 55.0107 26.1058 55.4608 26.4941 55.831H26.4952L38.1784 45.1867L38.1794 45.1856Z" fill="#BDD8EE"/>
<path d="M61.0768 55.8278C61.465 55.4577 61.7744 55.0075 61.9781 54.5062L50.7941 44.3174L49.3936 45.1856L55.5066 50.7547L61.0768 55.8288V55.8278Z" fill="#BDD8EE"/>
<path d="M25.4454 34.9542H25.4475L41.8795 45.6187C42.4523 45.9675 43.1115 46.1521 43.7857 46.1521C44.4598 46.1521 45.119 45.9675 45.6918 45.6187L60.8971 35.7499L62.1238 34.9542C61.6886 33.3233 60.1793 32.1222 58.3851 32.1222H29.1841C28.5633 32.1222 27.9766 32.2662 27.4561 32.5222C26.4726 33.0054 25.7291 33.8886 25.4443 34.9542H25.4454Z" fill="#F0F7FB"/>
<path d="M62.2536 35.9216H62.2504C62.2504 35.5867 62.2066 35.2646 62.1234 34.9542L60.8957 35.751L45.6914 45.6187C45.1186 45.9675 44.4594 46.1531 43.7842 46.1531C43.1101 46.1531 42.4509 45.9686 41.8781 45.6198L25.4472 34.9542C25.4472 34.9542 25.4472 34.9542 25.4472 34.9552C25.365 35.2635 25.3213 35.5867 25.3213 35.9216V37.2112L36.7794 44.3152H36.7816L38.18 45.1835H38.1821L41.0376 46.9552C41.8802 47.4683 42.8338 47.7264 43.7874 47.7264C44.741 47.7264 45.6957 47.4694 46.5373 46.9552L49.3928 45.1846L50.7933 44.3163L62.2525 37.2123H62.2536V35.9216Z" fill="#BDD8EE"/>
<path d="M52.3114 34.119C52.3114 32.3899 52.8949 30.7974 53.873 29.5248C52.1215 30.9062 50.9951 33.047 50.9951 35.4512C50.9951 39.6187 54.3722 42.9968 58.5386 42.9968C60.9759 42.9968 63.1423 41.8395 64.5215 40.0454C63.2373 41.0587 61.6181 41.6646 59.8549 41.6646C55.6885 41.6646 52.3114 38.2864 52.3114 34.119Z" fill="#96C0E0"/>
<path d="M67.3995 34.119C67.3995 29.9515 64.0225 26.5734 59.8561 26.5734C57.4187 26.5734 55.2523 27.7307 53.8731 29.5248C52.895 30.7974 52.3115 32.3899 52.3115 34.119C52.3115 38.2864 55.6886 41.6646 59.855 41.6646C61.6171 41.6646 63.2374 41.0587 64.5217 40.0454C66.2731 38.664 67.3995 36.5232 67.3995 34.119Z" fill="#C49A3A"/>
<path d="M59.9372 37.9611C59.4946 37.9611 59.1372 37.6038 59.1372 37.1611V32.679L58.6156 33.0704C58.2626 33.335 57.7602 33.2635 57.4956 32.9104C57.2311 32.5574 57.3026 32.055 57.6556 31.7904L59.4572 30.439C59.7004 30.2566 60.0247 30.2278 60.2946 30.3632C60.5655 30.4987 60.7362 30.776 60.7362 31.079V37.1611C60.7362 37.6038 60.3788 37.9611 59.9362 37.9611H59.9372Z" fill="#F0F7FB"/>
</g>
<defs>
<filter id="filter0_diii_325_1370" x="0" y="0" width="90" height="90" filterUnits="userSpaceOnUse" color-interpolation-filters="sRGB">
<feFlood flood-opacity="0" result="BackgroundImageFix"/>
<feColorMatrix in="SourceAlpha" type="matrix" values="0 0 0 0 0 0 0 0 0 0 0 0 0 0 0 0 0 0 127 0" result="hardAlpha"/>
<feOffset dy="2"/>
<feGaussianBlur stdDeviation="2.5"/>
<feComposite in2="hardAlpha" operator="out"/>
<feColorMatrix type="matrix" values="0 0 0 0 0.239216 0 0 0 0 0.54902 0 0 0 0 0.431373 0 0 0 0.25 0"/>
<feBlend mode="normal" in2="BackgroundImageFix" result="effect1_dropShadow_325_1370"/>
<feBlend mode="normal" in="SourceGraphic" in2="effect1_dropShadow_325_1370" result="shape"/>
<feColorMatrix in="SourceAlpha" type="matrix" values="0 0 0 0 0 0 0 0 0 0 0 0 0 0 0 0 0 0 127 0" result="hardAlpha"/>
<feOffset dy="3"/>
<feGaussianBlur stdDeviation="2"/>
<feComposite in2="hardAlpha" operator="arithmetic" k2="-1" k3="1"/>
<feColorMatrix type="matrix" values="0 0 0 0 0.94902 0 0 0 0 0.968627 0 0 0 0 0.956863 0 0 0 0.1 0"/>
<feBlend mode="normal" in2="shape" result="effect2_innerShadow_325_1370"/>
<feColorMatrix in="SourceAlpha" type="matrix" values="0 0 0 0 0 0 0 0 0 0 0 0 0 0 0 0 0 0 127 0" result="hardAlpha"/>
<feOffset dy="1"/>
<feGaussianBlur stdDeviation="0.5"/>
<feComposite in2="hardAlpha" operator="arithmetic" k2="-1" k3="1"/>
<feColorMatrix type="matrix" values="0 0 0 0 1 0 0 0 0 1 0 0 0 0 1 0 0 0 0.1 0"/>
<feBlend mode="normal" in2="effect2_innerShadow_325_1370" result="effect3_innerShadow_325_1370"/>
<feColorMatrix in="SourceAlpha" type="matrix" values="0 0 0 0 0 0 0 0 0 0 0 0 0 0 0 0 0 0 127 0" result="hardAlpha"/>
<feOffset dy="-2"/>
<feGaussianBlur stdDeviation="1"/>
<feComposite in2="hardAlpha" operator="arithmetic" k2="-1" k3="1"/>
<feColorMatrix type="matrix" values="0 0 0 0 0.117647 0 0 0 0 0.376471 0 0 0 0 0.286275 0 0 0 0.15 0"/>
<feBlend mode="normal" in2="effect3_innerShadow_325_1370" result="effect4_innerShadow_325_1370"/>
</filter>
<clipPath id="clip0_325_1370">
<rect width="44.8" height="32.9173" fill="white" transform="translate(22.5996 26.5734)"/>
</clipPath>
</defs>
</svg>
