<svg width="201" height="268" viewBox="0 0 201 268" fill="none" xmlns="http://www.w3.org/2000/svg">
<g style="mix-blend-mode:plus-lighter" opacity="0.05" filter="url(#filter0_n_22_1586)">
<path d="M185.17 155.404C190.649 155.404 195.913 153.271 199.846 149.457L232.429 117.862C239.305 111.194 234.443 99.5519 224.866 99.7557L193.663 100.42C172.944 100.861 155.617 116.293 152.79 136.823L151.331 147.418C150.749 151.64 154.03 155.404 158.292 155.404H185.17Z" fill="url(#paint0_linear_22_1586)"/>
<path d="M83.4697 51.0693C83.4697 45.5901 85.6028 40.3264 89.4168 36.3929L121.581 3.22417C128.173 -3.57403 139.689 1.09279 139.689 10.5624V47.3575C139.689 70.6444 120.811 89.5223 97.5245 89.5223H90.497C86.616 89.5223 83.4697 86.376 83.4697 82.4947V51.0693Z" fill="url(#paint1_linear_22_1586)"/>
<path d="M147.679 72.9638C147.679 72.9638 164.043 57.8907 173.467 70.5078C182.891 83.125 170.755 94.6672 161.95 103.472C153.146 112.276 150.642 117.959 150.642 117.959C145.822 124.134 143.203 131.744 143.203 139.579V206.408C143.203 211.472 141.38 216.368 138.067 220.199L99.3263 264.992C95.0687 269.916 86.9838 266.904 86.9838 260.395V156.283H7.04157C0.820764 156.283 -2.33247 148.796 2.01379 144.346L41.1223 104.299C43.7671 101.591 47.3923 100.064 51.1779 100.064H97.8959C103.778 100.064 108.384 100.44 119.436 96.2954C130.488 92.1509 147.679 72.9638 147.679 72.9638Z" fill="url(#paint2_linear_22_1586)"/>
</g>
<defs>
<filter id="filter0_n_22_1586" x="0" y="0" width="235.654" height="267.437" filterUnits="userSpaceOnUse" color-interpolation-filters="sRGB">
<feFlood flood-opacity="0" result="BackgroundImageFix"/>
<feBlend mode="normal" in="SourceGraphic" in2="BackgroundImageFix" result="shape"/>
<feTurbulence type="fractalNoise" baseFrequency="0.66666668653488159 0.66666668653488159" stitchTiles="stitch" numOctaves="3" result="noise" seed="8763" />
<feColorMatrix in="noise" type="luminanceToAlpha" result="alphaNoise" />
<feComponentTransfer in="alphaNoise" result="coloredNoise1">
<feFuncA type="discrete" tableValues="1 1 1 1 1 1 1 1 1 1 1 1 1 1 1 1 1 1 1 1 1 1 1 1 1 1 1 1 1 1 1 1 1 1 1 1 1 1 1 1 1 1 1 1 1 1 1 1 1 1 1 0 0 0 0 0 0 0 0 0 0 0 0 0 0 0 0 0 0 0 0 0 0 0 0 0 0 0 0 0 0 0 0 0 0 0 0 0 0 0 0 0 0 0 0 0 0 0 0 0 "/>
</feComponentTransfer>
<feComposite operator="in" in2="shape" in="coloredNoise1" result="noise1Clipped" />
<feFlood flood-color="#3D8C6E" result="color1Flood" />
<feComposite operator="in" in2="noise1Clipped" in="color1Flood" result="color1" />
<feMerge result="effect1_noise_22_1586">
<feMergeNode in="shape" />
<feMergeNode in="color1" />
</feMerge>
</filter>
<linearGradient id="paint0_linear_22_1586" x1="201.619" y1="127.294" x2="146.396" y2="176.855" gradientUnits="userSpaceOnUse">
<stop stop-color="white"/>
<stop offset="0.55" stop-color="white" stop-opacity="0.4"/>
<stop offset="1" stop-color="white" stop-opacity="0"/>
</linearGradient>
<linearGradient id="paint1_linear_22_1586" x1="111.579" y1="63.6084" x2="118.833" y2="107.891" gradientUnits="userSpaceOnUse">
<stop stop-color="white"/>
<stop offset="0.46" stop-color="white" stop-opacity="0.4"/>
<stop offset="1" stop-color="white" stop-opacity="0"/>
</linearGradient>
<linearGradient id="paint2_linear_22_1586" x1="111.888" y1="137.836" x2="146.25" y2="103.553" gradientUnits="userSpaceOnUse">
<stop stop-color="white"/>
<stop offset="0.64" stop-color="white" stop-opacity="0.3"/>
<stop offset="1" stop-color="white" stop-opacity="0"/>
</linearGradient>
</defs>
</svg>
