<svg preserveAspectRatio="none" width="100%" height="100%" overflow="visible" style="display: block;" viewBox="0 0 59.0898 15.183" fill="none" xmlns="http://www.w3.org/2000/svg">
<g id="Vector">
<path fill-rule="evenodd" clip-rule="evenodd" d="M24.1737 3.8042C25.1462 3.80421 26.0333 4.05937 26.8246 4.57224C27.6169 5.07225 28.2325 5.79506 28.6761 6.72348L28.7187 6.81204C29.152 7.73156 29.3618 8.80609 29.3618 10.0244V10.3965H21.7751C21.8329 10.683 21.9305 10.9396 22.0651 11.1691C22.3016 11.5585 22.6109 11.855 22.9961 12.0651C23.3831 12.2762 23.8137 12.3839 24.2951 12.3839C24.8599 12.3839 25.294 12.2618 25.6222 12.0445C25.9754 11.7966 26.2517 11.4795 26.4532 11.0882L26.6114 10.7811L29.3047 11.9237L29.1168 12.2816C28.8136 12.8591 28.4227 13.366 27.945 13.8003C27.4736 14.2412 26.9103 14.5758 26.2612 14.8065C25.6197 15.0394 24.8949 15.1518 24.0928 15.1518C23.0498 15.1518 22.1073 14.9153 21.2757 14.4339L21.2724 14.4319L21.2691 14.4299C20.4569 13.9368 19.812 13.2617 19.3365 12.4116L19.3353 12.4095L19.3341 12.4074C18.8688 11.5494 18.6415 10.5695 18.6415 9.47799C18.6415 8.38461 18.8764 7.40307 19.3567 6.54431C19.8333 5.69224 20.4869 5.02279 21.3145 4.54326C22.1596 4.04785 23.1161 3.80421 24.1737 3.8042ZM24.113 6.49107C23.7681 6.49107 23.4168 6.57125 23.0563 6.73951L23.0516 6.74163L23.0468 6.74366C22.7039 6.89228 22.4182 7.11998 22.1862 7.43315L22.1842 7.43583L22.1821 7.43852C22.0794 7.57198 21.9985 7.72862 21.9428 7.91196H26.1115C26.0605 7.72173 25.9858 7.56008 25.8912 7.42346L25.8893 7.42086L25.8876 7.41809C25.6807 7.10775 25.4221 6.88489 25.1097 6.73984L25.1023 6.73634L25.0951 6.73259C24.783 6.57081 24.4572 6.49108 24.113 6.49107Z" fill="#A8CCE8"/>
<path fill-rule="evenodd" clip-rule="evenodd" d="M40.5474 14.909H37.6777L37.6297 14.0169C37.4759 14.1684 37.3109 14.3078 37.1344 14.4345L37.1338 14.4349L37.1331 14.4353C36.4544 14.918 35.6479 15.1518 34.7321 15.1518C33.7541 15.1518 32.8809 14.9208 32.1263 14.4472L32.1226 14.445L32.1191 14.4427C31.3841 13.9575 30.809 13.284 30.3915 12.4346L30.3903 12.4323L30.3893 12.43C29.9835 11.5749 29.7867 10.5875 29.7867 9.47799C29.7867 8.35602 29.983 7.3673 30.3903 6.52371L30.3908 6.52257L30.3915 6.52135C30.8091 5.67178 31.3848 5.00375 32.1219 4.53162L32.193 4.48652C32.9319 4.02824 33.7825 3.8042 34.7321 3.8042C35.647 3.80421 36.4525 4.04435 37.1299 4.53854C37.2806 4.64335 37.423 4.75764 37.5571 4.88117V0H40.5474V14.909ZM35.2783 6.63271C34.8041 6.63272 34.3964 6.7503 34.0435 6.97802C33.6873 7.20783 33.4004 7.53155 33.1847 7.96145C32.9835 8.38924 32.8716 8.89215 32.8582 9.47799C32.8716 10.0636 32.9835 10.5664 33.1846 10.994C33.3998 11.4233 33.6869 11.7551 34.0449 11.999C34.4124 12.2271 34.8269 12.3435 35.2986 12.3435C35.7415 12.3435 36.118 12.2282 36.4418 12.0052C36.7865 11.7637 37.0548 11.4346 37.2451 11.0063L37.2468 11.0024L37.2487 10.9985C37.4444 10.5841 37.5503 10.0983 37.5567 9.53294L37.5571 9.47799L37.5567 9.42296C37.5503 8.85761 37.4444 8.37169 37.2487 7.9573L37.2468 7.95348L37.2451 7.94957C37.0552 7.52217 36.7885 7.20202 36.4479 6.97493L36.4455 6.9733L36.4431 6.97159C36.1206 6.74921 35.7374 6.63271 35.2783 6.63271Z" fill="#A8CCE8"/>
<path fill-rule="evenodd" clip-rule="evenodd" d="M46.5862 3.8042C47.6169 3.8042 48.5079 4.00855 49.2394 4.44004C49.9703 4.85768 50.5092 5.46447 50.8508 6.24865C51.2018 7.02367 51.3697 7.94234 51.3697 8.99234V8.99437L51.3696 8.99641L51.3049 14.909H48.4997L48.4674 14.3047C47.8375 14.8796 46.9795 15.1518 45.9387 15.1518C44.6738 15.1518 43.6359 14.8709 42.8732 14.2607L42.8719 14.2597L42.8704 14.2585C42.1089 13.6368 41.7421 12.7608 41.7421 11.6836C41.7421 10.5401 42.1286 9.62001 42.936 8.98339L42.9374 8.98233L42.9387 8.98127C43.7406 8.36093 44.823 8.07379 46.141 8.07379H48.2651C48.2391 7.95119 48.209 7.83689 48.1747 7.73084L48.1727 7.72473L48.1709 7.71863C48.0535 7.30748 47.8633 7.02599 47.6175 6.84159L47.6105 6.8363L47.6037 6.83077C47.3783 6.64456 47.0527 6.53161 46.5862 6.53161C46.1533 6.53161 45.7925 6.62138 45.4921 6.78827C45.1962 6.95266 44.9301 7.21738 44.7006 7.60401L44.5426 7.86996L41.8833 6.89312L42.0626 6.52314C42.2952 6.04341 42.5999 5.60152 42.9747 5.1979L42.9751 5.1975C43.3782 4.76456 43.8747 4.42558 44.4576 4.17784L44.4606 4.17662C45.0697 3.92406 45.7817 3.8042 46.5862 3.8042ZM46.8696 10.5584C45.9773 10.5584 45.4452 10.6895 45.1815 10.875L45.1778 10.8777L45.1738 10.8803C44.9189 11.0503 44.7932 11.2816 44.7932 11.623C44.7932 11.8954 44.892 12.0926 45.1016 12.2498C45.3423 12.4069 45.7034 12.5053 46.2219 12.5053C46.6775 12.5053 47.0536 12.404 47.3643 12.2153C47.687 12.0194 47.9297 11.7643 48.0996 11.4472L48.1019 11.4427L48.1045 11.4383C48.2541 11.1765 48.3438 10.8849 48.3705 10.5584H46.8696Z" fill="#A8CCE8"/>
<path d="M17.9007 6.21137L12.9315 12.2827H17.9411V14.909H8.92064V12.7238L13.8868 6.69344H8.92064V4.04703H17.9007V6.21137Z" fill="#A8CCE8"/>
<path d="M6.02454 12.3297C5.88588 12.3756 5.77198 12.3941 5.67981 12.3941C5.30874 12.394 5.07491 12.2931 4.92371 12.1366C4.79112 11.9863 4.6964 11.7434 4.68501 11.3614L4.68383 11.2825V6.67246H7.4654V4.02671H4.68383V0.835273H1.71016V4.02671H0V6.67246H1.71016V11.7121C1.71016 12.7851 2.01129 13.6613 2.65853 14.2882L2.66155 14.2912L2.66465 14.2941C3.32575 14.9036 4.25269 15.183 5.3914 15.183C5.79238 15.183 6.18995 15.1064 6.58241 14.957C6.97052 14.8228 7.35292 14.6244 7.72959 14.3655L7.97098 14.1996L6.81927 11.829L6.48644 12.0714C6.29695 12.2094 6.14367 12.2903 6.02454 12.3297Z" fill="#A8CCE8"/>
<path d="M59.0898 6.80725H58.7548C58.1701 6.80725 57.6213 6.88978 57.1066 7.05297L57.1017 7.05452C56.6179 7.19966 56.2378 7.43696 55.9484 7.76106C55.6797 8.06194 55.5306 8.47226 55.5306 9.02599V14.9048H52.6084V4.02571H55.5306V5.24393C55.8484 4.93141 56.2114 4.6763 56.6194 4.48082C57.306 4.15184 58.0189 3.9855 58.7548 3.98549H59.0898V6.80725Z" fill="#A8CCE8"/>
</g>
</svg>
