<svg width="57" height="40" viewBox="0 0 57 40" fill="none" xmlns="http://www.w3.org/2000/svg">
<path d="M20.095 3.60364C25.4604 3.60364 26.0958 3.62364 28.2153 3.71982C29.4897 3.73534 30.752 3.96823 31.9473 4.40836C32.8141 4.74105 33.6013 5.2507 34.2582 5.90448C34.9151 6.55827 35.4272 7.34171 35.7615 8.20437C36.2037 9.39395 36.4377 10.6502 36.4533 11.9185C36.549 14.0279 36.5701 14.6603 36.5701 20C36.5701 25.3397 36.55 25.9721 36.4533 28.0815C36.4377 29.3498 36.2037 30.6061 35.7615 31.7956C35.4272 32.6583 34.9151 33.4417 34.2582 34.0955C33.6013 34.7493 32.8141 35.2589 31.9473 35.5916C30.752 36.0318 29.4897 36.2647 28.2153 36.2802C26.0967 36.3754 25.4614 36.3964 20.095 36.3964C14.7287 36.3964 14.0933 36.3764 11.9747 36.2802C10.7003 36.2647 9.43807 36.0318 8.24279 35.5916C7.37598 35.2589 6.58878 34.7493 5.93186 34.0955C5.27494 33.4417 4.76285 32.6583 4.42856 31.7956C3.98632 30.6061 3.75231 29.3498 3.73672 28.0815C3.64103 25.9721 3.61998 25.3397 3.61998 20C3.61998 14.6603 3.64007 14.0279 3.73672 11.9185C3.75231 10.6502 3.98632 9.39395 4.42856 8.20437C4.76285 7.34171 5.27494 6.55827 5.93186 5.90448C6.58878 5.2507 7.37598 4.74105 8.24279 4.40836C9.43807 3.96823 10.7003 3.73534 11.9747 3.71982C14.0943 3.62459 14.7297 3.60364 20.095 3.60364ZM20.095 0C14.6407 0 13.9536 0.022856 11.8101 0.119994C10.1423 0.15301 8.49215 0.467293 6.92991 1.04947C5.58976 1.55199 4.37592 2.33947 3.37309 3.35698C2.34978 4.35539 1.55784 5.56411 1.0526 6.89872C0.467621 8.4535 0.15183 10.0958 0.118656 11.7556C0.0229658 13.887 0 14.5707 0 19.999C0 25.4274 0.0229657 26.1111 0.12057 28.2444C0.153744 29.9042 0.469535 31.5465 1.05451 33.1013C1.55919 34.4357 2.35047 35.6444 3.37309 36.643C4.37648 37.6608 5.59099 38.4483 6.93183 38.9505C8.49407 39.5327 10.1442 39.847 11.812 39.88C13.9555 39.9752 14.6397 40 20.0969 40C25.5542 40 26.2384 39.9771 28.3818 39.88C30.0497 39.847 31.6998 39.5327 33.262 38.9505C34.5965 38.4357 35.8084 37.6494 36.8201 36.6419C37.8318 35.6344 38.621 34.4278 39.1375 33.0994C39.7224 31.5446 40.0382 29.9023 40.0714 28.2425C40.1671 26.1111 40.19 25.4274 40.19 19.999C40.19 14.5707 40.1671 13.887 40.0695 11.7537C40.0363 10.0939 39.7205 8.4516 39.1355 6.89681C38.6309 5.56238 37.8396 4.35367 36.817 3.35508C35.8136 2.33734 34.5991 1.54984 33.2582 1.04757C31.696 0.465388 30.0458 0.151105 28.378 0.11809C26.2364 0.0228561 25.5494 0 20.095 0Z" fill="#F2F7F4"/>
<path d="M20.0927 9.72949C18.0518 9.72949 16.0566 10.3318 14.3596 11.4603C12.6626 12.5888 11.34 14.1927 10.559 16.0693C9.77791 17.9459 9.57355 20.0109 9.97172 22.0031C10.3699 23.9952 11.3527 25.8252 12.7959 27.2615C14.2391 28.6977 16.0778 29.6759 18.0795 30.0721C20.0813 30.4684 22.1561 30.265 24.0417 29.4877C25.9273 28.7104 27.539 27.3941 28.6729 25.7052C29.8068 24.0163 30.412 22.0307 30.412 19.9995C30.412 17.2757 29.3248 14.6635 27.3895 12.7375C25.4543 10.8115 22.8296 9.72949 20.0927 9.72949ZM20.0927 26.6658C18.7679 26.6658 17.4729 26.2749 16.3713 25.5423C15.2698 24.8098 14.4112 23.7687 13.9043 22.5506C13.3973 21.3325 13.2646 19.9921 13.5231 18.6989C13.7815 17.4058 14.4195 16.218 15.3563 15.2857C16.2931 14.3534 17.4866 13.7184 18.7859 13.4612C20.0853 13.204 21.4321 13.336 22.6561 13.8406C23.88 14.3451 24.9262 15.1996 25.6622 16.2959C26.3982 17.3921 26.7911 18.681 26.7911 19.9995C26.7911 21.7675 26.0853 23.4631 24.8292 24.7133C23.573 25.9635 21.8692 26.6658 20.0927 26.6658Z" fill="#F2F7F4"/>
<path d="M30.8177 11.7231C32.1494 11.7231 33.2291 10.6486 33.2291 9.32323C33.2291 7.99781 32.1494 6.92334 30.8177 6.92334C29.4859 6.92334 28.4062 7.99781 28.4062 9.32323C28.4062 10.6486 29.4859 11.7231 30.8177 11.7231Z" fill="#F2F7F4"/>
</svg>
